# xmcd CD database file
#
# Track frame offsets:
#	150
#	15236
#	34781
#	52442
#	71782
#	84203
#	95025
#	112037
#	129067
#	137588
#	154236
#	163869
#
# Disc length: 2492 seconds
#
# Revision: 0
# Processed by: cddbd v1.5.1PL0 Copyright (c) Steve Scherf et al.
# Submitted via: CDex 1.51
#
DISCID=9e09ba0c
DTITLE=Münchner Jazz and Folk Ensemble - Jolk
DYEAR=1900
DGENRE=Jazz
TTITLE0=Salzburger Nockerl
TTITLE1=Satonga
TTITLE2=Stresemann
TTITLE3=Melancholia
TTITLE4=Keine Frage
TTITLE5=Ohne Drei
TTITLE6=Oma Fox
TTITLE7=Basso
TTITLE8=Kinder, Kinder
TTITLE9=Ohne Ende
TTITLE10=Siebenerbahn
TTITLE11=Chroma
EXTD=
EXTT0=
EXTT1=
EXTT2=
EXTT3=
EXTT4=
EXTT5=
EXTT6=
EXTT7=
EXTT8=
EXTT9=
EXTT10=
EXTT11=
PLAYORDER=
